<?xml version="1.0" encoding="UTF-8"?>
<svg xmlns="http://www.w3.org/2000/svg" viewBox="0 0 24 24" fill="none">
  <!-- 格子背景 -->
  <rect x="2.5" y="2.5" width="19" height="19" rx="4" stroke="currentColor" stroke-width="1.5" fill="none" />

  <!-- 内部网格线（细微暗示扫雷格子） -->
  <path d="M8.5 2.5 L8.5 21.5" stroke="currentColor" stroke-width="0.5" stroke-opacity="0.3" />
  <path d="M15.5 2.5 L15.5 21.5" stroke="currentColor" stroke-width="0.5" stroke-opacity="0.3" />
  <path d="M2.5 8.5 L21.5 8.5" stroke="currentColor" stroke-width="0.5" stroke-opacity="0.3" />
  <path d="M2.5 15.5 L21.5 15.5" stroke="currentColor" stroke-width="0.5" stroke-opacity="0.3" />

  <!-- 地雷标志（更精细） -->
  <circle cx="12" cy="12" r="3.5" stroke="currentColor" stroke-width="1.5" />

  <!-- 地雷触角（更短更和谐） -->
  <line x1="12" y1="5.5" x2="12" y2="8.5" stroke="currentColor" stroke-width="1.5" stroke-linecap="round" />
  <line x1="12" y1="15.5" x2="12" y2="18.5" stroke="currentColor" stroke-width="1.5" stroke-linecap="round" />
  <line x1="5.5" y1="12" x2="8.5" y2="12" stroke="currentColor" stroke-width="1.5" stroke-linecap="round" />
  <line x1="15.5" y1="12" x2="18.5" y2="12" stroke="currentColor" stroke-width="1.5" stroke-linecap="round" />
  <line x1="7.5" y1="7.5" x2="9.5" y2="9.5" stroke="currentColor" stroke-width="1.5" stroke-linecap="round" />
  <line x1="7.5" y1="16.5" x2="9.5" y2="14.5" stroke="currentColor" stroke-width="1.5" stroke-linecap="round" />
  <line x1="16.5" y1="7.5" x2="14.5" y2="9.5" stroke="currentColor" stroke-width="1.5" stroke-linecap="round" />
  <line x1="16.5" y1="16.5" x2="14.5" y2="14.5" stroke="currentColor" stroke-width="1.5" stroke-linecap="round" />

  <!-- 小旗 -->
  <path d="M5 5.5 L5 8 L7.5 6.75 L5 5.5" fill="currentColor" stroke="none" />
  <line x1="5" y1="5" x2="5" y2="9" stroke="currentColor" stroke-width="1" stroke-linecap="round" />

  <!-- 右下角数字 -->
  <path d="M17 17 L17 20 L19 20 L19 19.2 L18 19.2 L18 17 Z" fill="currentColor" stroke="none" />
</svg>
